<?xml version="1.0" encoding="UTF-8"?>
<svg id="Layer_1" xmlns="http://www.w3.org/2000/svg" version="1.1" viewBox="0 0 841.89 595.28">
  <!-- Generator: Adobe Illustrator 29.8.1, SVG Export Plug-In . SVG Version: 2.1.1 Build 2)  -->
  <defs>
    <style>
      .st0 {
        fill: #0123ff;
      }

      .st1, .st2, .st3 {
        font-family: Montserrat-Regular, Montserrat;
      }

      .st4, .st5, .st6, .st7, .st8, .st9 {
        font-size: 9.71px;
      }

      .st4, .st8 {
        font-family: Poppins-SemiBold, Poppins;
        font-weight: 600;
      }

      .st10, .st11, .st12, .st2, .st7, .st8, .st3, .st9 {
        fill: #fff;
      }

      .st10, .st6, .st7, .st13 {
        font-family: Poppins-Medium, Poppins;
        font-weight: 500;
      }

      .st10, .st13 {
        font-size: 9.71px;
      }

      .st5, .st9 {
        font-family: Poppins-Regular, Poppins;
      }

      .st14 {
        fill: #f40362;
      }

      .st12 {
        font-size: 12px;
      }

      .st2 {
        font-size: 26px;
      }

      .st15 {
        font-family: Montserrat-Light, Montserrat;
        font-weight: 300;
        letter-spacing: 0em;
      }

      .st3 {
        font-size: 10.68px;
      }
    </style>
  </defs>
  <rect class="st0" y="0" width="841.89" height="595.28"/>
  <g>
    <text class="st10" transform="translate(56.88 516.49)"><tspan x="0" y="0">#0123FF</tspan></text>
    <g>
      <text class="st7" transform="translate(56.89 472.14)"><tspan x="0" y="0">R</tspan><tspan x="0" y="11.65">G</tspan><tspan x="0" y="23.3">B</tspan></text>
      <text class="st9" transform="translate(74.1 472.14)"><tspan x="0" y="0">1</tspan><tspan x="0" y="11.65">35</tspan><tspan x="0" y="23.3">255</tspan></text>
    </g>
    <g>
      <text class="st8" transform="translate(56.88 416.12)"><tspan x="0" y="0">C</tspan><tspan x="0" y="11.65">M</tspan><tspan x="0" y="23.3">Y</tspan><tspan x="0" y="34.96">K</tspan></text>
      <text class="st9" transform="translate(71.51 416.12)"><tspan x="0" y="0">87</tspan><tspan x="0" y="11.65">75</tspan><tspan x="0" y="23.3">0</tspan><tspan x="0" y="34.96">0</tspan></text>
    </g>
  </g>
  <text class="st2" transform="translate(53.3 117.86)"><tspan x="0" y="0">CORPORATE</tspan><tspan x="0" y="31.2">COLOR</tspan></text>
  <text class="st3" transform="translate(53.3 178.67)"><tspan x="0" y="0">Penggunaan warna yang tepat dan konsisten </tspan><tspan x="0" y="15">dapat menunjukan identitas visual sebuah </tspan><tspan x="0" y="30">brand.</tspan></text>
  <text class="st12" transform="translate(53.3 48.09)"><tspan class="st1" x="0" y="0">Brand Identity | </tspan><tspan class="st15" x="96.74" y="0">Color</tspan></text>
  <rect class="st14" x="422.13" y="0" width="311.45" height="595.28"/>
  <g>
    <text class="st10" transform="translate(443.11 516.49)"><tspan x="0" y="0">#F40362</tspan></text>
    <g>
      <text class="st7" transform="translate(443.12 472.14)"><tspan x="0" y="0">R</tspan><tspan x="0" y="11.65">G</tspan><tspan x="0" y="23.3">B</tspan></text>
      <text class="st9" transform="translate(460.33 472.14)"><tspan x="0" y="0">244</tspan><tspan x="0" y="11.65">3</tspan><tspan x="0" y="23.3">98</tspan></text>
    </g>
    <g>
      <text class="st8" transform="translate(443.11 416.12)"><tspan x="0" y="0">C</tspan><tspan x="0" y="11.65">M</tspan><tspan x="0" y="23.3">Y</tspan><tspan x="0" y="34.96">K</tspan></text>
      <text class="st9" transform="translate(457.74 416.12)"><tspan x="0" y="0">0</tspan><tspan x="0" y="11.65">100</tspan><tspan x="0" y="23.3">41</tspan><tspan x="0" y="34.96">0</tspan></text>
    </g>
  </g>
  <g>
    <rect class="st11" x="629.09" y="0" width="159.08" height="595.28"/>
    <g>
      <text class="st13" transform="translate(650.06 516.49)"><tspan x="0" y="0">#FFFFFF</tspan></text>
      <g>
        <text class="st6" transform="translate(650.08 472.14)"><tspan x="0" y="0">R</tspan><tspan x="0" y="11.65">G</tspan><tspan x="0" y="23.3">B</tspan></text>
        <text class="st5" transform="translate(667.28 472.14)"><tspan x="0" y="0">255</tspan><tspan x="0" y="11.65">255</tspan><tspan x="0" y="23.3">255</tspan></text>
      </g>
      <g>
        <text class="st4" transform="translate(650.06 416.12)"><tspan x="0" y="0">C</tspan><tspan x="0" y="11.65">M</tspan><tspan x="0" y="23.3">Y</tspan><tspan x="0" y="34.96">K</tspan></text>
        <text class="st5" transform="translate(664.7 416.12)"><tspan x="0" y="0">0</tspan><tspan x="0" y="11.65">0</tspan><tspan x="0" y="23.3">0</tspan><tspan x="0" y="34.96">0</tspan></text>
      </g>
    </g>
  </g>
  <g>
    <rect x="746.02" y="0" width="95.87" height="595.28"/>
    <g>
      <text class="st10" transform="translate(766.99 516.49)"><tspan x="0" y="0">#000000</tspan></text>
      <g>
        <text class="st7" transform="translate(767 472.14)"><tspan x="0" y="0">R</tspan><tspan x="0" y="11.65">G</tspan><tspan x="0" y="23.3">B</tspan></text>
        <text class="st9" transform="translate(784.21 472.14)"><tspan x="0" y="0">0</tspan><tspan x="0" y="11.65">0</tspan><tspan x="0" y="23.3">0</tspan></text>
      </g>
      <g>
        <text class="st8" transform="translate(766.99 416.12)"><tspan x="0" y="0">C</tspan><tspan x="0" y="11.65">M</tspan><tspan x="0" y="23.3">Y</tspan><tspan x="0" y="34.96">K</tspan></text>
        <text class="st9" transform="translate(781.62 416.12)"><tspan x="0" y="0">75</tspan><tspan x="0" y="11.65">68</tspan><tspan x="0" y="23.3">67</tspan><tspan x="0" y="34.96">90</tspan></text>
      </g>
    </g>
  </g>
</svg>